<svg width="20" height="20" viewBox="0 0 20 20" fill="none" xmlns="http://www.w3.org/2000/svg">
<path d="M14.1667 2.91666H5.83341C3.33341 2.91666 1.66675 4.16666 1.66675 7.08333V12.9167C1.66675 15.8333 3.33341 17.0833 5.83341 17.0833H14.1667C16.6667 17.0833 18.3334 15.8333 18.3334 12.9167V7.08333C18.3334 4.16666 16.6667 2.91666 14.1667 2.91666ZM3.12508 7.08333C3.12508 5.59166 4.34175 4.375 5.83341 4.375H7.08341C7.42508 4.375 7.70842 4.65833 7.70842 5C7.70842 5.34166 7.42508 5.625 7.08341 5.625H5.83341C5.03341 5.625 4.37508 6.28333 4.37508 7.08333V8.33333C4.37508 8.675 4.09175 8.95833 3.75008 8.95833C3.40841 8.95833 3.12508 8.675 3.12508 8.33333V7.08333ZM7.08341 15.625H5.83341C4.34175 15.625 3.12508 14.4083 3.12508 12.9167V11.6667C3.12508 11.325 3.40841 11.0417 3.75008 11.0417C4.09175 11.0417 4.37508 11.325 4.37508 11.6667V12.9167C4.37508 13.7167 5.03341 14.375 5.83341 14.375H7.08341C7.42508 14.375 7.70842 14.6583 7.70842 15C7.70842 15.3417 7.42508 15.625 7.08341 15.625ZM10.0001 12.5C8.61675 12.5 7.50008 11.3833 7.50008 10C7.50008 8.61666 8.61675 7.5 10.0001 7.5C11.3834 7.5 12.5001 8.61666 12.5001 10C12.5001 11.3833 11.3834 12.5 10.0001 12.5ZM16.8751 12.9167C16.8751 14.4083 15.6584 15.625 14.1667 15.625H12.9167C12.5751 15.625 12.2917 15.3417 12.2917 15C12.2917 14.6583 12.5751 14.375 12.9167 14.375H14.1667C14.9667 14.375 15.6251 13.7167 15.6251 12.9167V11.6667C15.6251 11.325 15.9084 11.0417 16.2501 11.0417C16.5917 11.0417 16.8751 11.325 16.8751 11.6667V12.9167ZM16.8751 8.33333C16.8751 8.675 16.5917 8.95833 16.2501 8.95833C15.9084 8.95833 15.6251 8.675 15.6251 8.33333V7.08333C15.6251 6.28333 14.9667 5.625 14.1667 5.625H12.9167C12.5751 5.625 12.2917 5.34166 12.2917 5C12.2917 4.65833 12.5751 4.375 12.9167 4.375H14.1667C15.6584 4.375 16.8751 5.59166 16.8751 7.08333V8.33333Z" fill="#FFA400"/>
</svg>
