<svg width="24" height="24" viewBox="0 0 24 24" fill="none" xmlns="http://www.w3.org/2000/svg">
<path d="M18 7.16C17.94 7.15 17.87 7.15 17.81 7.16C16.43 7.11 15.33 5.98 15.33 4.58C15.33 3.15 16.48 2 17.91 2C19.34 2 20.49 3.16 20.49 4.58C20.48 5.98 19.38 7.11 18 7.16Z" stroke="#1F1F1F" stroke-width="1.5" stroke-linecap="round" stroke-linejoin="round"/>
<path d="M16.97 14.44C18.34 14.67 19.85 14.43 20.91 13.72C22.32 12.78 22.32 11.24 20.91 10.3C19.84 9.59001 18.31 9.35 16.94 9.59" stroke="#1F1F1F" stroke-width="1.5" stroke-linecap="round" stroke-linejoin="round"/>
<path d="M5.96998 7.16C6.02998 7.15 6.09998 7.15 6.15998 7.16C7.53998 7.11 8.63998 5.98 8.63998 4.58C8.63998 3.15 7.48998 2 6.05998 2C4.62998 2 3.47998 3.16 3.47998 4.58C3.48998 5.98 4.58998 7.11 5.96998 7.16Z" stroke="#1F1F1F" stroke-width="1.5" stroke-linecap="round" stroke-linejoin="round"/>
<path d="M7 14.44C5.63 14.67 4.12 14.43 3.06 13.72C1.65 12.78 1.65 11.24 3.06 10.3C4.13 9.59001 5.66 9.35 7.03 9.59" stroke="#1F1F1F" stroke-width="1.5" stroke-linecap="round" stroke-linejoin="round"/>
<path d="M12 14.6297C11.94 14.6197 11.87 14.6197 11.81 14.6297C10.43 14.5797 9.32996 13.4497 9.32996 12.0497C9.32996 10.6197 10.48 9.46973 11.91 9.46973C13.34 9.46973 14.49 10.6297 14.49 12.0497C14.48 13.4497 13.38 14.5897 12 14.6297Z" stroke="#1F1F1F" stroke-width="1.5" stroke-linecap="round" stroke-linejoin="round"/>
<path d="M9.08997 17.7794C7.67997 18.7194 7.67997 20.2594 9.08997 21.1994C10.69 22.2694 13.31 22.2694 14.91 21.1994C16.32 20.2594 16.32 18.7194 14.91 17.7794C13.32 16.7194 10.69 16.7194 9.08997 17.7794Z" stroke="#1F1F1F" stroke-width="1.5" stroke-linecap="round" stroke-linejoin="round"/>
</svg>
