<svg width="24" height="24" viewBox="0 0 24 24" fill="none" xmlns="http://www.w3.org/2000/svg">
<path d="M5.46997 10.75C4.75997 10.75 4.03997 10.49 3.48997 9.96C1.64997 8.21 0.909972 6.3 1.33997 4.43C1.84997 2.23 3.77997 1.25 5.46997 1.25C7.15997 1.25 9.09997 2.24 9.59997 4.43C10.03 6.3 9.27997 8.21 7.44997 9.96C6.89997 10.49 6.18997 10.75 5.46997 10.75ZM2.79997 4.77C2.41997 6.44 3.52997 7.92 4.52997 8.87C5.05997 9.38 5.88997 9.37 6.41997 8.87C7.41997 7.92 8.52997 6.44 8.13997 4.76C7.79997 3.28 6.48997 2.75 5.47997 2.75C4.45997 2.75 3.14997 3.28 2.79997 4.77Z" fill="#1F1F1F"/>
<path d="M5.51001 6.2C4.96001 6.2 4.51001 5.75 4.51001 5.2C4.51001 4.65 4.95001 4.2 5.51001 4.2H5.52001C6.07001 4.2 6.52001 4.65 6.52001 5.2C6.52001 5.75 6.07001 6.2 5.51001 6.2Z" fill="#1F1F1F"/>
<path d="M18.49 22.75C17.78 22.75 17.06 22.49 16.5 21.96C14.65 20.21 13.9 18.3 14.34 16.42C14.85 14.23 16.79 13.24 18.49 13.24C20.19 13.24 22.13 14.23 22.64 16.42C23.07 18.29 22.32 20.21 20.47 21.95C19.92 22.49 19.21 22.75 18.49 22.75ZM18.49 14.75C17.47 14.75 16.15 15.28 15.8 16.77C15.41 18.44 16.53 19.93 17.53 20.88C18.06 21.39 18.9 21.39 19.44 20.88C20.44 19.93 21.56 18.45 21.17 16.78C20.84 15.28 19.52 14.75 18.49 14.75Z" fill="#1F1F1F"/>
<path d="M18.53 18.2C17.98 18.2 17.53 17.75 17.53 17.2C17.53 16.65 17.97 16.2 18.53 16.2H18.54C19.09 16.2 19.54 16.65 19.54 17.2C19.54 17.75 19.08 18.2 18.53 18.2Z" fill="#1F1F1F"/>
<path d="M12 19.75H9.32C8.16 19.75 7.15 19.05 6.75 17.97C6.34 16.89 6.64 15.7 7.51 14.93L15.5 7.94C15.98 7.52 15.99 6.95 15.85 6.56C15.7 6.17 15.32 5.75 14.68 5.75H12C11.59 5.75 11.25 5.41 11.25 5C11.25 4.59 11.59 4.25 12 4.25H14.68C15.84 4.25 16.85 4.95 17.25 6.03C17.66 7.11 17.36 8.3 16.49 9.07L8.5 16.06C8.02 16.48 8.01 17.05 8.15 17.44C8.3 17.83 8.68 18.25 9.32 18.25H12C12.41 18.25 12.75 18.59 12.75 19C12.75 19.41 12.41 19.75 12 19.75Z" fill="#1F1F1F"/>
<path d="M12 19.75H9.32C8.16 19.75 7.15 19.05 6.75 17.97C6.34 16.89 6.64 15.7 7.51 14.93L15.5 7.94C15.98 7.52 15.99 6.95 15.85 6.56C15.7 6.17 15.32 5.75 14.68 5.75H12C11.59 5.75 11.25 5.41 11.25 5C11.25 4.59 11.59 4.25 12 4.25H14.68C15.84 4.25 16.85 4.95 17.25 6.03C17.66 7.11 17.36 8.3 16.49 9.07L8.5 16.06C8.02 16.48 8.01 17.05 8.15 17.44C8.3 17.83 8.68 18.25 9.32 18.25H12C12.41 18.25 12.75 18.59 12.75 19C12.75 19.41 12.41 19.75 12 19.75Z" fill="#1F1F1F"/>
</svg>
