<svg width="20" height="20" viewBox="0 0 20 20" fill="none" xmlns="http://www.w3.org/2000/svg">
<path d="M17.9167 12.9167C18.1501 12.9167 18.3334 13.1 18.3334 13.3333V14.1667C18.3334 15.55 17.2167 16.6667 15.8334 16.6667C15.8334 15.2917 14.7084 14.1667 13.3334 14.1667C11.9584 14.1667 10.8334 15.2917 10.8334 16.6667H9.16675C9.16675 15.2917 8.04175 14.1667 6.66675 14.1667C5.29175 14.1667 4.16675 15.2917 4.16675 16.6667C2.78341 16.6667 1.66675 15.55 1.66675 14.1667V12.5C1.66675 12.0417 2.04175 11.6667 2.50008 11.6667H10.4167C11.5667 11.6667 12.5001 10.7333 12.5001 9.58334V5.00001C12.5001 4.54167 12.8751 4.16667 13.3334 4.16667H14.0334C14.6334 4.16667 15.1834 4.49167 15.4834 5.00834L16.0167 5.94167C16.0917 6.07501 15.9917 6.25001 15.8334 6.25001C14.6834 6.25001 13.7501 7.18334 13.7501 8.33334V10.8333C13.7501 11.9833 14.6834 12.9167 15.8334 12.9167H17.9167Z" fill="#FFA400"/>
<path d="M6.66667 18.3333C7.58714 18.3333 8.33333 17.5871 8.33333 16.6667C8.33333 15.7462 7.58714 15 6.66667 15C5.74619 15 5 15.7462 5 16.6667C5 17.5871 5.74619 18.3333 6.66667 18.3333Z" fill="#FFA400"/>
<path d="M13.3334 18.3333C14.2539 18.3333 15.0001 17.5871 15.0001 16.6667C15.0001 15.7462 14.2539 15 13.3334 15C12.4129 15 11.6667 15.7462 11.6667 16.6667C11.6667 17.5871 12.4129 18.3333 13.3334 18.3333Z" fill="#FFA400"/>
<path d="M18.3333 10.4417V11.6667H15.8333C15.375 11.6667 15 11.2917 15 10.8333V8.33333C15 7.875 15.375 7.5 15.8333 7.5H16.9083L18.1167 9.61667C18.2583 9.86667 18.3333 10.15 18.3333 10.4417Z" fill="#FFA400"/>
<path d="M10.8998 1.66667H4.7415C3.24984 1.66667 1.99984 2.73334 1.72484 4.15H5.3665C5.68317 4.15 5.93317 4.40834 5.93317 4.725C5.93317 5.04167 5.68317 5.29167 5.3665 5.29167H1.6665V6.44167H3.83317C4.14984 6.44167 4.40817 6.7 4.40817 7.01667C4.40817 7.33334 4.14984 7.58334 3.83317 7.58334H1.6665V8.73334H2.30817C2.62484 8.73334 2.88317 8.99167 2.88317 9.30834C2.88317 9.625 2.62484 9.875 2.30817 9.875H1.6665V10.0667C1.6665 10.525 2.0415 10.9 2.49984 10.9H10.1248C10.9748 10.9 11.6665 10.2083 11.6665 9.35834V2.43334C11.6665 2.00834 11.3248 1.66667 10.8998 1.66667Z" fill="#FFA400"/>
<path d="M1.72492 4.15039H1.59992H0.783252C0.466585 4.15039 0.208252 4.40872 0.208252 4.72539C0.208252 5.04206 0.466585 5.29206 0.783252 5.29206H1.54159H1.66659V4.74206C1.66659 4.54206 1.69159 4.34206 1.72492 4.15039Z" fill="#FFA400"/>
<path d="M1.54159 6.44206H0.783252C0.466585 6.44206 0.208252 6.7004 0.208252 7.01706C0.208252 7.33373 0.466585 7.58373 0.783252 7.58373H1.54159H1.66659V6.44206H1.54159Z" fill="#FFA400"/>
<path d="M1.54159 8.73373H0.783252C0.466585 8.73373 0.208252 8.99207 0.208252 9.30873C0.208252 9.6254 0.466585 9.8754 0.783252 9.8754H1.54159H1.66659V8.73373H1.54159Z" fill="#FFA400"/>
</svg>
